<?xml version="1.0" encoding="utf-8" standalone="yes"?>
<!DOCTYPE svg PUBLIC "-//W3C//DTD SVG 1.1//EN" "http://www.w3.org/Graphics/SVG/1.1/DTD/svg11.dtd">
<svg width="762" height="600" viewBox="0 0 762 600" style="fill:none;stroke:none;fill-rule:evenodd;clip-rule:evenodd;stroke-linecap:round;stroke-linejoin:round;stroke-miterlimit:1.5;" version="1.1" xmlns="http://www.w3.org/2000/svg" xmlns:xlink="http://www.w3.org/1999/xlink"><style class="text-font-style fontImports" data-font-family="Roboto">@import url(https://fonts.googleapis.com/css2?family=Roboto:wght@400;700&amp;amp;display=block);</style><g id="items" style="isolation: isolate"><g id="blend" style="mix-blend-mode: normal"><g id="g-root-cp_-1_container_1_1uqjwltzkgwea-fill" data-item-order="-393003" transform="translate(122.00004577636719, 134)"></g><g id="g-root-cp_4_g-4_1luwwcxzkgx6z-fill" data-item-order="-392944" transform="translate(525.0000610351562, 393)"><g id="cp_4_g-4_1luwwcxzkgx6z-fill-merged" stroke="none" fill="#ffe711"><g><path d="M52.057 91.619C60.665 98.747 68.412 111.655 73.987 131L84.192 101.57C85.746 96.873 85.881 90.358 84.749 83.162C78.996 86.253 71.233 87.781 63.242 89.577C59.06 90.525 55.36 91.183 52.049 91.619"></path></g></g><g id="cp_4_g-4_1luwwcxzkgx6z-fill-merged" stroke="none" fill="#ffe711"><g><path d="M63.368 40.01C58.663 35.603 53.307 32.346 47.394 30.929C3.788 20.442 10.351 34.8 10.351 34.8C12.582 41.327 34.942 45.655 63.368 40.01"></path></g></g><g id="cp_4_g-4_1luwwcxzkgx6z-fill-merged" stroke="none" fill="#ffe711"><g><path d="M92.47 75.654C88.094 84.557 75.955 86.71 63.25 89.577C45.586 93.56 36.429 92.612 29.325 90.391C23.259 77.328 10.351 34.8 10.351 34.8C12.598 41.382 35.28 45.733 64.027 39.887C92.774 34.042 112.973 15.935 115 10C115 10 96.846 66.752 92.47 75.654"></path></g></g></g><g id="g-root-cp_3_g-3_1hfpvblzkgutg-fill" data-item-order="-392936" transform="translate(495.0001220703125, 300)"><g id="cp_3_g-3_1hfpvblzkgutg-fill-merged" stroke="none" fill="#a6da37"><g><path d="M118.236 125C133.543 117.413 143.435 107.697 144.818 103.659C144.818 103.659 144.683 104.081 144.439 104.846L145.164 103.194C147.281 96.15 147.82 89.606 147.053 83.55C137 90.97 118.514 97.592 96.747 101.419C105.906 107.774 113.505 115.971 118.244 125"></path></g></g><g id="cp_3_g-3_1hfpvblzkgutg-fill-merged" stroke="none" fill="#a6da37"><g><path d="M95.204 50.563C102.98 49.265 110.384 47.513 117.333 45.45C103.469 37.519 86.172 32.139 68.462 29.278C57.709 27.536 48.34 26.494 40.243 26.372C4.95 25.828 10.288 40.081 10.288 40.081C13.552 49.609 49.537 58.161 95.196 50.574"></path></g></g><g id="cp_3_g-3_1hfpvblzkgutg-fill-merged" stroke="none" fill="#a6da37"><g><path d="M177 10C177 10 159.231 65.026 154.213 75.697C149.186 86.367 124.738 96.827 94.411 101.829C59.809 107.53 37.199 101.729 29.811 97.104C23.309 83.228 10.296 40.07 10.296 40.07C13.56 49.598 49.545 58.15 95.204 50.563C140.863 42.976 173.753 19.472 177 10"></path></g></g></g><g id="g-root-cp_2_g-2_18k2v2pzkgvm5-fill" data-item-order="-392928" transform="translate(464.0001220703125, 206)"><g id="cp_2_g-2_18k2v2pzkgvm5-fill-merged" stroke="none" fill="#43dd93"><g><path d="M127.156 61.703C144.23 59.137 160.036 55.11 174.104 50.336C160.053 43.241 142.895 37.686 124.581 33.782C84.413 39.036 50.967 35.511 28.911 29.822C6.349 35.132 10.259 45.684 10.259 45.684C14.557 58.278 64.46 71.117 127.156 61.692"></path></g></g><g id="cp_2_g-2_18k2v2pzkgvm5-fill-merged" stroke="none" fill="#43dd93"><g><path d="M176.375 128.989C194.403 119.965 205.912 109.947 207.77 104.515C207.77 104.515 207.753 104.582 207.711 104.694L208.251 103.4C210.092 97.197 210.227 91.33 208.918 85.808C197.789 94.375 177.355 103.745 151.871 110.115C161.877 115.67 170.346 122.095 176.375 129"></path></g></g><g id="cp_2_g-2_18k2v2pzkgvm5-fill-merged" stroke="none" fill="#43dd93"><g><path d="M240 10C240 10 223.087 63.934 217.396 76.494C211.713 89.054 174.391 108.174 126.328 115.135C74.719 122.898 38.571 111.911 30.879 104.816C23.921 89.969 10.25 45.696 10.25 45.696C14.548 58.289 64.452 71.129 127.147 61.703C189.843 52.277 235.525 23.129 239.992 10.011"></path></g></g></g><g id="g-root-cp_1_g-1_1449cy9zkgwee-fill" data-item-order="-392920" transform="translate(434.0013427734375, 112)"><g id="cp_1_g-1_1449cy9zkgwee-fill-merged" stroke="none" fill="#1ac3fb"><g><path d="M235.117 131C253.948 121.462 266.226 111.515 269.363 104.946L270.283 102.686C271.944 97.081 271.784 91.697 270.055 86.59C258.527 95.829 237.428 106.762 210.232 115.336C220.2 120.111 228.708 125.406 235.126 131"></path></g></g><g id="cp_1_g-1_1449cy9zkgwee-fill-merged" stroke="none" fill="#1ac3fb"><g><path d="M158.386 72.167C186.038 68.301 211.126 61.61 232.326 53.845C201.07 39.382 155.147 30.097 110.331 27.666C93.281 26.745 77.347 26.619 62.893 27.694C2.673 32.184 10.313 50.832 10.313 50.832C15.626 66.318 78.805 83.289 158.386 72.156"></path></g></g><g id="cp_1_g-1_1449cy9zkgwee-fill-merged" stroke="none" fill="#1ac3fb"><g><path d="M301.999 10C301.999 10 285.462 62.153 279.12 76.443C272.787 90.733 223.202 118.139 157.535 127.09C89.043 136.672 39.466 120.775 31.48 111.315C24.084 95.696 10.313 50.843 10.313 50.843C15.626 66.329 78.805 83.3 158.386 72.167C237.968 61.034 296.307 26.594 301.999 10"></path></g></g></g><g id="g-root-ic_1_925b69zkgx6q-fill" data-item-order="-1296" transform="translate(74.22705078125, 92)"><g id="ic_1_925b69zkgx6q-fill-merged" stroke="none" fill="#f4f4f4"><g><path d="M19.75 26.5C14.365 26.5 10 30.865 10 36.25C10 41.635 14.365 46 19.75 46C25.135 46 29.5 41.635 29.5 36.25C29.492 30.869 25.131 26.508 19.75 26.5 M19.75 43.75C18.922 43.75 18.25 43.078 18.25 42.25C18.25 41.422 18.922 40.75 19.75 40.75C20.578 40.75 21.25 41.422 21.25 42.25C21.25 43.078 20.578 43.75 19.75 43.75 M21.16 37.495C20.98 37.545 20.861 37.714 20.875 37.9 V38.125C20.875 38.746 20.371 39.25 19.75 39.25C19.129 39.25 18.625 38.746 18.625 38.125 V37.3C18.628 36.412 19.255 35.648 20.125 35.47C20.999 35.288 21.582 34.46 21.459 33.576C21.336 32.693 20.548 32.056 19.658 32.12C18.768 32.184 18.08 32.928 18.085 33.82C18.077 34.444 17.569 34.945 16.945 34.945C16.33 34.937 15.835 34.436 15.835 33.82C15.838 31.836 17.32 30.165 19.29 29.925C21.26 29.686 23.099 30.952 23.579 32.877C24.058 34.802 23.027 36.783 21.175 37.495 M32.02 28.3C32.395 27.87 32.395 27.23 32.02 26.8L29.035 23.5C28.9 23.351 28.9 23.124 29.035 22.975L32.035 19.72C32.303 19.266 32.22 18.686 31.835 18.326C31.449 17.965 30.865 17.921 30.43 18.22L26.5 22.42C26.125 22.85 26.125 23.49 26.5 23.92L30.505 28.195C30.907 28.617 31.564 28.663 32.02 28.3 M34.435 26.71C34.167 27.164 34.25 27.744 34.635 28.104C35.021 28.465 35.605 28.509 36.04 28.21L40.045 23.935C40.42 23.505 40.42 22.865 40.045 22.435L36.07 18.145C35.631 17.706 34.919 17.706 34.48 18.145C34.262 18.352 34.138 18.639 34.138 18.94C34.138 19.241 34.262 19.528 34.48 19.735L37.48 23.005C37.613 23.149 37.613 23.371 37.48 23.515L34.435 26.71 M45.115 14.5L41.5 10.885C40.94 10.322 40.179 10.003 39.385 10 H22C20.343 10 19 11.343 19 13 V23.815C19 24.016 19.159 24.182 19.36 24.19C19.915 24.19 20.86 24.19 21.595 24.325C21.7 24.333 21.803 24.298 21.88 24.226C21.957 24.155 22 24.055 22 23.95 V13.75C22 13.336 22.336 13 22.75 13 H39.07C39.269 12.998 39.46 13.079 39.595 13.225L42.775 16.405C42.921 16.54 43.002 16.731 43 16.93 V37C43 37.414 42.664 37.75 42.25 37.75 H31.945C31.765 37.755 31.614 37.887 31.585 38.065C31.46 38.812 31.264 39.545 31 40.255C30.955 40.365 30.968 40.491 31.034 40.59C31.1 40.689 31.211 40.749 31.33 40.75 H43C44.657 40.75 46 39.407 46 37.75 V16.63C46.001 15.83 45.682 15.064 45.115 14.5"></path></g></g></g><g id="g-root-ic_grap_v7dhoxzkpbex-fill" data-item-order="-1296" transform="translate(74.22705078125, 212)"><g id="ic_grap_v7dhoxzkpbex-fill-merged" stroke="none" fill="#f4f4f4"><g><path d="M28 10C27.172 10 26.5 10.672 26.5 11.5 V11.965C26.5 12.172 26.332 12.34 26.125 12.34 H13C11.757 12.34 10.75 13.347 10.75 14.59 V35.5C10.746 36.099 10.981 36.675 11.404 37.101C11.826 37.526 12.401 37.765 13 37.765 H26.08C26.287 37.765 26.455 37.933 26.455 38.14 V39.805C26.453 39.922 26.398 40.033 26.305 40.105L21.805 43.285C21.264 43.674 21.045 44.374 21.267 45.002C21.489 45.631 22.1 46.037 22.765 46C23.078 45.998 23.382 45.898 23.635 45.715L27.79 42.715C27.915 42.625 28.085 42.625 28.21 42.715L32.365 45.715C32.618 45.898 32.922 45.998 33.235 46C33.884 45.996 34.456 45.575 34.654 44.958C34.852 44.34 34.63 43.665 34.105 43.285L29.605 40.105C29.512 40.033 29.457 39.922 29.455 39.805 V38.14C29.455 37.933 29.623 37.765 29.83 37.765 H43C44.231 37.74 45.213 36.731 45.205 35.5 V14.5C45.158 13.31 44.191 12.363 43 12.34 H29.875C29.668 12.34 29.5 12.172 29.5 11.965 V11.5C29.5 10.672 28.828 10 28 10 M31.465 23.05L34.465 26.05C34.542 26.113 34.636 26.15 34.735 26.155C34.834 26.152 34.93 26.115 35.005 26.05L39.34 21.7C39.707 21.272 40.282 21.085 40.83 21.217C41.378 21.349 41.806 21.777 41.938 22.325C42.07 22.873 41.883 23.448 41.455 23.815L36.85 28.42C35.68 29.583 33.79 29.583 32.62 28.42L29.62 25.42C29.556 25.346 29.463 25.302 29.365 25.3C29.262 25.301 29.165 25.345 29.095 25.42L25.15 29.35C24.593 29.916 23.829 30.231 23.035 30.22C22.243 30.221 21.482 29.908 20.92 29.35L19.42 27.85C19.352 27.777 19.257 27.736 19.157 27.736C19.058 27.736 18.963 27.777 18.895 27.85L17.605 29.155C17.017 29.739 16.067 29.736 15.483 29.147C14.898 28.559 14.902 27.609 15.49 27.025L16.99 25.525C18.16 24.362 20.05 24.362 21.22 25.525L22.72 27.025C22.788 27.098 22.883 27.139 22.983 27.139C23.082 27.139 23.177 27.098 23.245 27.025L27.235 23.05C28.405 21.887 30.295 21.887 31.465 23.05"></path></g></g></g><g id="g-root-ic_bars_18fpmmpzktibt-fill" data-item-order="-1296" transform="translate(74.22705078125, 320)"><g id="ic_bars_18fpmmpzktibt-fill-merged" stroke="none" fill="#f4f4f4"><g><path d="M11.875 35.5 H17.125C17.332 35.5 17.5 35.332 17.5 35.125 V32.125C17.5 31.297 16.828 30.625 16 30.625 H13C12.172 30.625 11.5 31.297 11.5 32.125 V35.125C11.5 35.332 11.668 35.5 11.875 35.5 M22 23.125C21.172 23.125 20.5 23.797 20.5 24.625 V35.125C20.5 35.332 20.668 35.5 20.875 35.5 H26.125C26.332 35.5 26.5 35.332 26.5 35.125 V24.625C26.5 23.797 25.828 23.125 25 23.125 H22 M31 26.125C30.172 26.125 29.5 26.797 29.5 27.625 V35.125C29.5 35.332 29.668 35.5 29.875 35.5 H35.125C35.332 35.5 35.5 35.332 35.5 35.125 V27.625C35.5 26.797 34.828 26.125 34 26.125 H31 M38.875 35.5 H44.125C44.332 35.5 44.5 35.332 44.5 35.125 V17.125C44.5 16.297 43.828 15.625 43 15.625 H40C39.172 15.625 38.5 16.297 38.5 17.125 V35.125C38.5 35.332 38.668 35.5 38.875 35.5 M11.5 40.375 H44.5C45.328 40.375 46 39.703 46 38.875C46.001 38.301 45.675 37.777 45.16 37.525C44.953 37.428 44.728 37.377 44.5 37.375 H11.5C11.272 37.377 11.047 37.428 10.84 37.525C10.325 37.777 9.999 38.301 10 38.875C10 39.703 10.672 40.375 11.5 40.375"></path></g></g></g><g id="g-root-ic_1_18lbzkhzks6br-fill" data-item-order="-1296" transform="translate(74.22705078125, 428)"><g id="ic_1_18lbzkhzks6br-fill-merged" stroke="none" fill="#f4f4f4"><g><path d="M35.995 25.6C33.944 25.626 32.136 26.952 31.495 28.9 H31.255C25.045 28.9 22.255 26.53 21.565 20.725 V19.36C23.805 18.623 25.178 16.369 24.805 14.041C24.431 11.713 22.423 10 20.065 10C17.707 10 15.699 11.713 15.325 14.041C14.952 16.369 16.325 18.623 18.565 19.36 V36.64C16.325 37.377 14.952 39.631 15.325 41.959C15.699 44.287 17.707 46 20.065 46C22.423 46 24.431 44.287 24.805 41.959C25.178 39.631 23.805 37.377 21.565 36.64 V28.45C23.695 30.76 26.905 31.9 31.255 31.9 H31.495C32.265 34.239 34.679 35.616 37.084 35.088C39.488 34.56 41.104 32.298 40.823 29.853C40.543 27.407 38.457 25.569 35.995 25.6"></path></g></g></g><g id="g-root-tx_abordand_qtfbo1zkgutk-fill" data-item-order="0" transform="translate(122.00004577636719, 98)"><g id="tx_abordand_qtfbo1zkgutk-fill-merged" stroke="none" fill="#1ac3fb"><g><text style="font: bold 20px Roboto, sans-serif; white-space: pre;" font-weight="bold" font-size="20px" font-family="Roboto, sans-serif"><tspan x="12" y="34" dominant-baseline="ideographic">Abordando Preguntas Clave</tspan></text></g></g></g><g id="g-root-tx_aseguran_dhytapzkgweh-fill" data-item-order="0" transform="translate(122.00004577636719, 134)"><g id="tx_aseguran_dhytapzkgweh-fill-merged" stroke="none" fill="#f4f4f4"><g><text style="font: 20px Roboto, sans-serif; white-space: pre;" font-size="20px" font-family="Roboto, sans-serif"><tspan x="12" y="34" dominant-baseline="ideographic">Asegurando que el reporte </tspan><tspan x="12" y="58" dominant-baseline="ideographic">responda a preguntas esenciales</tspan></text></g></g></g><g id="g-root-tx_presenta_1lto1chzkpbes-fill" data-item-order="0" transform="translate(122.00004577636719, 218)"><g id="tx_presenta_1lto1chzkpbes-fill-merged" stroke="none" fill="#43dd93"><g><text style="font: bold 20px Roboto, sans-serif; white-space: pre;" font-weight="bold" font-size="20px" font-family="Roboto, sans-serif"><tspan x="12" y="34" dominant-baseline="ideographic">Presentando KPIs Clave</tspan></text></g></g></g><g id="g-root-tx_mostrand_18i7iz5zkpczq-fill" data-item-order="0" transform="translate(122.00004577636719, 254)"><g id="tx_mostrand_18i7iz5zkpczq-fill-merged" stroke="none" fill="#f4f4f4"><g><text style="font: 15px Roboto, sans-serif; white-space: pre;" font-size="15px" font-family="Roboto, sans-serif"><tspan x="12" y="27.6" dominant-baseline="ideographic">Mostrando métricas clave de forma clara y </tspan><tspan x="12" y="45.6" dominant-baseline="ideographic">precisa</tspan></text></g></g></g><g id="g-root-tx_facilita_1qehc5tzks5jf-fill" data-item-order="0" transform="translate(122.00004577636719, 326)"><g id="tx_facilita_1qehc5tzks5jf-fill-merged" stroke="none" fill="#a6da37"><g><text style="font: bold 20px Roboto, sans-serif; white-space: pre;" font-weight="bold" font-size="20px" font-family="Roboto, sans-serif"><tspan x="12" y="34" dominant-baseline="ideographic">Facilitando el Análisis de Datos</tspan></text></g></g></g><g id="g-root-tx_permitie_qn6nypzktiip-fill" data-item-order="0" transform="translate(122.00004577636719, 362)"><g id="tx_permitie_qn6nypzktiip-fill-merged" stroke="none" fill="#f4f4f4"><g><text style="font: 15px Roboto, sans-serif; white-space: pre;" font-size="15px" font-family="Roboto, sans-serif"><tspan x="12" y="27.6" dominant-baseline="ideographic">Permitiendo a los usuarios explorar datos </tspan><tspan x="12" y="45.6" dominant-baseline="ideographic">para obtener insights</tspan></text></g></g></g><g id="g-root-tx_agilizan_1lux2ohzks5qe-fill" data-item-order="0" transform="translate(122.00004577636719, 434)"><g id="tx_agilizan_1lux2ohzks5qe-fill-merged" stroke="none" fill="#ffe711"><g><text style="font: bold 20px Roboto, sans-serif; white-space: pre;" font-weight="bold" font-size="20px" font-family="Roboto, sans-serif"><tspan x="12" y="34" dominant-baseline="ideographic">Agilizando la Toma de </tspan><tspan x="12" y="58" dominant-baseline="ideographic">Decisiones</tspan></text></g></g></g><g id="g-root-tx_simplifi_qtfhzlzks3cx-fill" data-item-order="0" transform="translate(122.00004577636719, 494)"><g id="tx_simplifi_qtfhzlzks3cx-fill-merged" stroke="none" fill="#f4f4f4"><g><text style="font: 15px Roboto, sans-serif; white-space: pre;" font-size="15px" font-family="Roboto, sans-serif"><tspan x="12" y="27.6" dominant-baseline="ideographic">Simplificando el proceso de toma de </tspan><tspan x="12" y="45.6" dominant-baseline="ideographic">decisiones</tspan></text></g></g></g><g id="g-root-cp_-1_container_1_1uqjwltzkgwea-stroke" data-item-order="-393003" transform="translate(122.00004577636719, 134)"></g><g id="g-root-cp_4_g-4_1luwwcxzkgx6z-stroke" data-item-order="-392944" transform="translate(525.0000610351562, 393)"><g id="cp_4_g-4_1luwwcxzkgx6z-stroke" fill="none" stroke-linecap="round" stroke-linejoin="round" stroke-miterlimit="4" stroke="#2c2c2c" stroke-width="2"><g><path d="M 52.057191 91.618585C 60.665191 98.747385 68.411691 111.655185 73.987091 130.999985L 84.191691 101.569985C 85.746091 96.873185 85.881291 90.357985 84.749291 83.162285C 78.996491 86.252585 71.233191 87.780985 63.241691 89.577085C 59.060191 90.525385 55.360191 91.183485 52.048691 91.618585L 52.057191 91.618585Z"></path></g></g><g id="cp_4_g-4_1luwwcxzkgx6z-stroke" fill="none" stroke-linecap="round" stroke-linejoin="round" stroke-miterlimit="4" stroke="#2c2c2c" stroke-width="2"><g><path d="M 63.3684 40.010129C 58.6631 35.603429 53.3074 32.345829 47.3941 30.929029C 3.7876 20.442129 10.3514 34.800129 10.3514 34.800129C 12.5816 41.326529 34.9423 45.655129 63.3684 40.010129Z"></path></g></g><g id="cp_4_g-4_1luwwcxzkgx6z-stroke" fill="none" stroke-linecap="round" stroke-linejoin="round" stroke-miterlimit="4" stroke="#2c2c2c" stroke-width="2"><g><path d="M 92.470288 75.6541C 88.094488 84.5567 75.955288 86.7099 63.250188 89.5771C 45.586288 93.5598 36.429088 92.6115 29.324688 90.3914C 23.259288 77.3276 10.351388 34.8002 10.351388 34.8002C 12.598488 41.3823 35.280188 45.7332 64.027288 39.8874C 92.774388 34.0415 112.972588 15.9351 114.999988 10C 114.999988 10 96.846188 66.7515 92.470288 75.6541Z"></path></g></g></g><g id="g-root-cp_3_g-3_1hfpvblzkgutg-stroke" data-item-order="-392936" transform="translate(495.0001220703125, 300)"><g id="cp_3_g-3_1hfpvblzkgutg-stroke" fill="none" stroke-linecap="round" stroke-linejoin="round" stroke-miterlimit="4" stroke="#2c2c2c" stroke-width="2"><g><path d="M 118.235859 124.999973C 133.542559 117.413173 143.434959 107.696773 144.818059 103.659373C 144.818059 103.659373 144.683059 104.080873 144.438559 104.846273L 145.163759 103.193573C 147.280559 96.150273 147.820359 89.606073 147.052859 83.549973C 137.000259 90.970373 118.514159 97.592173 96.747459 101.418873C 105.906159 107.774473 113.504659 115.971273 118.244259 124.999973L 118.235859 124.999973Z"></path></g></g><g id="cp_3_g-3_1hfpvblzkgutg-stroke" fill="none" stroke-linecap="round" stroke-linejoin="round" stroke-miterlimit="4" stroke="#2c2c2c" stroke-width="2"><g><path d="M 95.204139 50.562929C 102.979739 49.265129 110.384339 47.512629 117.333439 45.449629C 103.468939 37.518929 86.171939 32.139429 68.461739 29.277729C 57.709139 27.536329 48.339539 26.493729 40.243439 26.371729C 4.949539 25.828229 10.287939 40.081129 10.287939 40.081129C 13.551639 49.609029 49.537039 58.160729 95.195739 50.574029L 95.204139 50.562929Z"></path></g></g><g id="cp_3_g-3_1hfpvblzkgutg-stroke" fill="none" stroke-linecap="round" stroke-linejoin="round" stroke-miterlimit="4" stroke="#2c2c2c" stroke-width="2"><g><path d="M 176.999972 10C 176.999972 10 159.230672 65.0264 154.212772 75.6967C 149.186472 86.367 124.737972 96.8266 94.411372 101.829C 59.808972 107.5302 37.198972 101.7292 29.811272 97.1039C 23.309072 83.2281 10.296272 40.0698 10.296272 40.0698C 13.559972 49.5977 49.545472 58.1495 95.204072 50.5627C 140.862672 42.9759 173.753072 19.4724 176.999972 10Z"></path></g></g></g><g id="g-root-cp_2_g-2_18k2v2pzkgvm5-stroke" data-item-order="-392928" transform="translate(464.0001220703125, 206)"><g id="cp_2_g-2_18k2v2pzkgvm5-stroke" fill="none" stroke-linecap="round" stroke-linejoin="round" stroke-miterlimit="4" stroke="#2c2c2c" stroke-width="2"><g><path d="M 127.155939 61.702757C 144.229539 59.137157 160.036439 55.110257 174.103939 50.335957C 160.053339 43.241457 142.895339 37.686357 124.580639 33.782157C 84.413039 39.036057 50.966839 35.511157 28.911439 29.822157C 6.349339 35.131857 10.258939 45.684357 10.258939 45.684357C 14.556839 58.278257 64.460139 71.117457 127.155939 61.691657L 127.155939 61.702757Z"></path></g></g><g id="cp_2_g-2_18k2v2pzkgvm5-stroke" fill="none" stroke-linecap="round" stroke-linejoin="round" stroke-miterlimit="4" stroke="#2c2c2c" stroke-width="2"><g><path d="M 176.375301 128.988872C 194.403001 119.964572 205.912001 109.947472 207.769701 104.515072C 207.769701 104.515072 207.752801 104.581972 207.710601 104.693572L 208.251001 103.399572C 210.091701 97.197472 210.226801 91.330072 208.918001 85.808372C 197.789001 94.375272 177.354801 103.745372 151.871201 110.114872C 161.877201 115.669972 170.346401 122.095172 176.375301 128.999972L 176.375301 128.988872Z"></path></g></g><g id="cp_2_g-2_18k2v2pzkgvm5-stroke" fill="none" stroke-linecap="round" stroke-linejoin="round" stroke-miterlimit="4" stroke="#2c2c2c" stroke-width="2"><g><path d="M 239.999899 10C 239.999899 10 223.086799 63.9337 217.395599 76.4941C 211.712899 89.0545 174.390999 108.174 126.328399 115.1346C 74.719399 122.8984 38.571199 111.9108 30.878799 104.8163C 23.920999 89.9692 10.250399 45.6956 10.250399 45.6956C 14.548299 58.2894 64.451699 71.1286 127.147499 61.7028C 189.843299 52.2769 235.524699 23.1293 239.991499 10.0111L 239.999899 10Z"></path></g></g></g><g id="g-root-cp_1_g-1_1449cy9zkgwee-stroke" data-item-order="-392920" transform="translate(434.0013427734375, 112)"><g id="cp_1_g-1_1449cy9zkgwee-stroke" fill="none" stroke-linecap="round" stroke-linejoin="round" stroke-miterlimit="4" stroke="#2c2c2c" stroke-width="2"><g><path d="M 235.117311 130.999957C 253.948011 121.462257 266.226311 111.514657 269.363311 104.945657L 270.282511 102.685857C 271.943811 97.080557 271.783611 91.696857 270.054811 86.590157C 258.527111 95.828857 237.427911 106.762357 210.231811 115.336357C 220.199511 120.110757 228.708311 125.405857 235.125811 130.999957L 235.117311 130.999957Z"></path></g></g><g id="cp_1_g-1_1449cy9zkgwee-stroke" fill="none" stroke-linecap="round" stroke-linejoin="round" stroke-miterlimit="4" stroke="#2c2c2c" stroke-width="2"><g><path d="M 158.386315 72.167108C 186.037815 68.301108 211.125715 61.610208 232.326015 53.844908L 232.361415 53.829508C 201.069715 39.382108 155.146615 30.097208 110.330515 27.666308C 93.281115 26.744608 77.346515 26.618908 62.892715 27.694208C 2.673215 32.184108 10.312915 50.831808 10.312915 50.831808C 15.625615 66.318208 78.805015 83.289008 158.386315 72.156008L 158.386315 72.167108Z"></path></g></g><g id="cp_1_g-1_1449cy9zkgwee-stroke" fill="none" stroke-linecap="round" stroke-linejoin="round" stroke-miterlimit="4" stroke="#2c2c2c" stroke-width="2"><g><path d="M 301.998704 10C 301.998704 10 285.461804 62.153 279.120204 76.4431C 272.787104 90.7331 223.201604 118.1389 157.534604 127.0896C 89.042504 136.6716 39.465504 120.7754 31.479504 111.3152C 24.083804 95.6958 10.312904 50.8429 10.312904 50.8429C 15.625604 66.3293 78.805004 83.3001 158.386304 72.1671C 237.967704 61.0342 296.306504 26.5942 301.998704 10Z"></path></g></g></g><g id="g-root-ic_1_925b69zkgx6q-stroke" data-item-order="-1296" transform="translate(74.22705078125, 92)"></g><g id="g-root-ic_grap_v7dhoxzkpbex-stroke" data-item-order="-1296" transform="translate(74.22705078125, 212)"></g><g id="g-root-ic_bars_18fpmmpzktibt-stroke" data-item-order="-1296" transform="translate(74.22705078125, 320)"></g><g id="g-root-ic_1_18lbzkhzks6br-stroke" data-item-order="-1296" transform="translate(74.22705078125, 428)"></g><g id="g-root-tx_abordand_qtfbo1zkgutk-stroke" data-item-order="0" transform="translate(122.00004577636719, 98)"></g><g id="g-root-tx_aseguran_dhytapzkgweh-stroke" data-item-order="0" transform="translate(122.00004577636719, 134)"></g><g id="g-root-tx_presenta_1lto1chzkpbes-stroke" data-item-order="0" transform="translate(122.00004577636719, 218)"></g><g id="g-root-tx_mostrand_18i7iz5zkpczq-stroke" data-item-order="0" transform="translate(122.00004577636719, 254)"></g><g id="g-root-tx_facilita_1qehc5tzks5jf-stroke" data-item-order="0" transform="translate(122.00004577636719, 326)"></g><g id="g-root-tx_permitie_qn6nypzktiip-stroke" data-item-order="0" transform="translate(122.00004577636719, 362)"></g><g id="g-root-tx_agilizan_1lux2ohzks5qe-stroke" data-item-order="0" transform="translate(122.00004577636719, 434)"></g><g id="g-root-tx_simplifi_qtfhzlzks3cx-stroke" data-item-order="0" transform="translate(122.00004577636719, 494)"></g></g></g></svg>