<?xml version="1.0" encoding="utf-8" standalone="yes"?>
<!DOCTYPE svg PUBLIC "-//W3C//DTD SVG 1.1//EN" "http://www.w3.org/Graphics/SVG/1.1/DTD/svg11.dtd">
<svg width="871" height="448" viewBox="0 0 871 448" style="fill:none;stroke:none;fill-rule:evenodd;clip-rule:evenodd;stroke-linecap:round;stroke-linejoin:round;stroke-miterlimit:1.5;" version="1.1" xmlns="http://www.w3.org/2000/svg" xmlns:xlink="http://www.w3.org/1999/xlink"><style class="text-font-style fontImports" data-font-family="Roboto">@import url(https://fonts.googleapis.com/css2?family=Roboto:wght@400;700&amp;amp;display=block);</style><g id="items" style="isolation: isolate"><g id="blend" style="mix-blend-mode: normal"><g id="g-root-sy_3_cu_Vector_1cuwtu5ukv6rm-fill" data-item-order="-299510" transform="translate(428.6666564941406, 281.400390625)"><g id="sy_3_cu_Vector_1cuwtu5ukv6rm-fill-merged" stroke="none" fill="#4e88e7"><g><path d="M10 118L70 142 H334L394 118L334 10 H70L10 118"></path></g></g></g><g id="g-root-sy_3_Subtract_1cuwtu5ukv6rn-fill" data-item-order="-299505" transform="translate(39.666656494140625, 317.400390625)"></g><g id="g-root-sy_3_Subtract-start_13z9tl9ukv7kc-fill" data-item-order="-299503" transform="translate(32.666656494140625, 314.400390625)"></g><g id="g-root-sy_2_cu_Vector_13z9tl9ukv7kd-fill" data-item-order="-299500" transform="translate(500.6666564941406, 161.400390625)"><g id="sy_2_cu_Vector_13z9tl9ukv7kd-fill-merged" stroke="none" fill="#3cc583"><g><path d="M10 106L58 130 H202L250 106L202 10 H58L10 106"></path></g></g></g><g id="g-root-sy_2_Subtract_zjgbgtukv8cm-fill" data-item-order="-299495" transform="translate(38.666656494140625, 197.400390625)"></g><g id="g-root-sy_2_Subtract-start_zjgbgtukv8cn-fill" data-item-order="-299493" transform="translate(32.666656494140625, 194.400390625)"></g><g id="g-root-sy_1_cu_Vector_v3mtcdukv94w-fill" data-item-order="-299490" transform="translate(560.6666259765625, 29.400390625)"><g id="sy_1_cu_Vector_v3mtcdukv94w-fill-merged" stroke="none" fill="#92bd39"><g><path d="M10 118L46 142 H94L130 118L70 10L10 118"></path></g></g></g><g id="g-root-sy_1_Subtract_v3mtcdukv94x-fill" data-item-order="-299485" transform="translate(38.666656494140625, 77.400390625)"></g><g id="g-root-sy_1_Subtract-start_m8ma6lukv6ru-fill" data-item-order="-299483" transform="translate(32.666656494140625, 74.400390625)"></g><g id="g-root-ic_imag_5uux9uumepz-fill" data-item-order="-1044" transform="translate(605.6666259765625, 82.400390625)"><g id="ic_imag_5uux9uumepz-fill-merged" stroke="none" fill="#ffffff"><g><path d="M35.87 17.365L30.65 10.885C30.196 10.318 29.579 9.999 28.935 10 H14.833C13.499 10 12.417 11.343 12.417 13 V43C12.417 44.657 13.499 46 14.833 46 H34.167C35.501 46 36.583 44.657 36.583 43 V19.495C36.584 18.695 36.327 17.929 35.87 17.365 M20.392 16.75C21.393 16.75 22.204 17.757 22.204 19C22.204 20.243 21.393 21.25 20.392 21.25C19.391 21.25 18.579 20.243 18.579 19C18.579 17.757 19.391 16.75 20.392 16.75 M18.555 29.11L20.331 25.525C20.715 24.963 21.37 24.829 21.878 25.21L23.787 27.025C23.905 27.168 24.093 27.168 24.21 27.025L26.035 24.115C26.263 23.727 26.627 23.499 27.013 23.5C27.387 23.524 27.731 23.763 27.944 24.145L29.696 29.2C29.778 29.432 29.759 29.7 29.647 29.912C29.535 30.124 29.344 30.251 29.14 30.25 H19.063C18.846 30.246 18.647 30.098 18.542 29.863C18.437 29.627 18.442 29.34 18.555 29.11 M29.938 41.11 H17.854C17.354 41.11 16.948 40.606 16.948 39.985C16.948 39.364 17.354 38.86 17.854 38.86 H29.938C30.438 38.86 30.844 39.364 30.844 39.985C30.844 40.606 30.438 41.11 29.938 41.11 M29.938 35.86 H17.854C17.354 35.86 16.948 35.356 16.948 34.735C16.948 34.114 17.354 33.61 17.854 33.61 H29.938C30.438 33.61 30.844 34.114 30.844 34.735C30.844 35.356 30.438 35.86 29.938 35.86"></path></g></g></g><g id="g-root-ic_path_142zcp9uv0gen-fill" data-item-order="-1044" transform="translate(605.6666259765625, 190.400390625)"><g id="ic_path_142zcp9uv0gen-fill-merged" stroke="none" fill="#ffffff"><g><path d="M22.688 44.5C22.688 43.672 22.147 43 21.479 43 H19.063C18.395 43 17.854 43.672 17.854 44.5C17.854 45.328 18.395 46 19.063 46 H21.479C22.147 46 22.688 45.328 22.688 44.5 M15.184 42.1C14.35 41.471 13.672 40.567 13.226 39.49C12.865 38.928 12.234 38.763 11.721 39.096C11.208 39.429 10.958 40.167 11.124 40.855C11.774 42.401 12.752 43.697 13.951 44.605C14.309 45.037 14.844 45.151 15.298 44.893C15.751 44.634 16.03 44.056 16 43.438C15.969 42.819 15.635 42.288 15.16 42.1 M12.55 29.65C11.544 30.886 10.833 32.444 10.495 34.15C10.283 34.698 10.358 35.352 10.686 35.804C11.014 36.256 11.529 36.418 11.991 36.213C12.452 36.008 12.769 35.478 12.791 34.87C13.025 33.695 13.519 32.625 14.217 31.78C14.662 31.201 14.662 30.289 14.217 29.71C13.763 29.141 13.029 29.114 12.55 29.65 M30.977 29.83C31.644 29.83 32.185 29.158 32.185 28.33C32.185 27.502 31.644 26.83 30.977 26.83 H29.2C28.533 26.83 27.992 27.502 27.992 28.33C27.992 29.158 28.533 29.83 29.2 29.83 H30.977 M37.188 23.11C36.622 22.718 35.907 22.949 35.568 23.635C35.214 24.397 34.737 25.061 34.167 25.585C33.782 25.98 33.632 26.628 33.79 27.216C33.948 27.804 34.381 28.211 34.88 28.24C35.133 28.234 35.378 28.129 35.58 27.94C36.41 27.184 37.105 26.224 37.622 25.12C37.936 24.414 37.744 23.526 37.188 23.11 M38.541 18.715C38.329 16.881 37.666 15.174 36.644 13.825C36.197 13.247 35.462 13.207 34.976 13.735C34.731 14.018 34.591 14.414 34.59 14.83C34.593 15.197 34.705 15.549 34.904 15.82C35.56 16.714 36.007 17.814 36.197 19C36.33 19.791 36.945 20.308 37.586 20.17C38.14 20.022 38.536 19.418 38.541 18.715 M32.741 12.37C32.783 11.568 32.309 10.867 31.665 10.78C31.436 10.765 31.206 10.765 30.977 10.78 H29.768C29.101 10.78 28.56 11.452 28.56 12.28C28.56 13.108 29.101 13.78 29.768 13.78 H31.569C32.195 13.758 32.704 13.146 32.741 12.37 M20.368 23.5C20.448 23.766 20.647 23.948 20.875 23.965 H22.361C22.521 23.965 22.651 24.126 22.651 24.325 V39.025C22.651 40.243 23.446 41.23 24.428 41.23C25.409 41.23 26.204 40.243 26.204 39.025 V24.325C26.204 24.126 26.334 23.965 26.494 23.965 H27.98C28.235 23.985 28.47 23.797 28.56 23.5C28.651 23.229 28.604 22.916 28.439 22.705L24.887 18.295C24.652 18.009 24.276 18.009 24.041 18.295L20.488 22.705C20.324 22.916 20.276 23.229 20.368 23.5 M22.095 12.94C22.095 14.564 23.156 15.88 24.464 15.88C25.772 15.88 26.832 14.564 26.832 12.94C26.832 11.316 25.772 10 24.464 10C23.156 10 22.095 11.316 22.095 12.94 M17.951 26.905C17.283 26.905 16.743 27.577 16.743 28.405C16.743 29.233 17.283 29.905 17.951 29.905 H19.727C20.394 29.905 20.935 29.233 20.935 28.405C20.935 27.577 20.394 26.905 19.727 26.905 H17.951"></path></g></g></g><g id="g-root-ic_vert_v5i8lpukv85e-fill" data-item-order="-1044" transform="translate(605.6666259765625, 310.400390625)"><g id="ic_vert_v5i8lpukv85e-fill-merged" stroke="none" fill="#ffffff"><g><path d="M17.837 14.417C17.837 15.66 18.649 16.667 19.65 16.667 H29.35C30.351 16.667 31.163 15.66 31.163 14.417 V11.464C31.163 11.05 30.892 10.714 30.559 10.714 H18.441C18.108 10.714 17.837 11.05 17.837 11.464 V14.419 M16.037 33.632C16.037 34.875 16.848 35.882 17.849 35.882 H31.149C32.15 35.882 32.962 34.875 32.962 33.632 V22.368C32.962 21.125 32.15 20.118 31.149 20.118 H17.849C16.848 20.118 16.037 21.125 16.037 22.368 V33.632 M31.163 41.583C31.163 40.34 30.351 39.333 29.35 39.333 H19.65C18.649 39.333 17.837 40.34 17.837 41.583 V44.535C17.837 44.949 18.108 45.285 18.441 45.285 H30.559C30.892 45.285 31.163 44.949 31.163 44.535 V41.583"></path></g></g></g><g id="g-root-tx_diseogua_zlbqq5ukv7d5-fill" data-item-order="0" transform="translate(32.666656494140625, 41.400390625)"><g id="tx_diseogua_zlbqq5ukv7d5-fill-merged" stroke="none" fill="#92bd39"><g><text style="font: bold 20px Roboto, sans-serif; white-space: pre;" font-weight="bold" font-size="20px" font-family="Roboto, sans-serif"><tspan x="12" y="34" dominant-baseline="ideographic">Diseño Guía</tspan></text></g></g></g><g id="g-root-tx_utilizae_1cw5s0dukv8y0-fill" data-item-order="0" transform="translate(32.666656494140625, 89.400390625)"><g id="tx_utilizae_1cw5s0dukv8y0-fill-merged" stroke="none" fill="#484848"><g><text style="font: 15px Roboto, sans-serif; white-space: pre;" font-size="15px" font-family="Roboto, sans-serif"><tspan x="12" y="27.6" dominant-baseline="ideographic">Utiliza el diseño para guiar, no </tspan><tspan x="12" y="45.6" dominant-baseline="ideographic">decorar</tspan></text></g></g></g><g id="g-root-tx_diseoest_1q7madpukv7d3-fill" data-item-order="0" transform="translate(32.666656494140625, 161.400390625)"><g id="tx_diseoest_1q7madpukv7d3-fill-merged" stroke="none" fill="#3cc583"><g><text style="font: bold 20px Roboto, sans-serif; white-space: pre;" font-weight="bold" font-size="20px" font-family="Roboto, sans-serif"><tspan x="12" y="34" dominant-baseline="ideographic">Diseño Estratégico</tspan></text></g></g></g><g id="g-root-tx_mejoraco_1umtbf1ukv9qm-fill" data-item-order="0" transform="translate(32.666656494140625, 209.400390625)"><g id="tx_mejoraco_1umtbf1ukv9qm-fill-merged" stroke="none" fill="#484848"><g><text style="font: 15px Roboto, sans-serif; white-space: pre;" font-size="15px" font-family="Roboto, sans-serif"><tspan x="12" y="30.6" dominant-baseline="ideographic">Mejora con diseño estratégico</tspan></text></g></g></g><g id="g-root-tx_funciona_4hc9otukv951-fill" data-item-order="0" transform="translate(32.666656494140625, 281.400390625)"><g id="tx_funciona_4hc9otukv951-fill-merged" stroke="none" fill="#4e88e7"><g><text style="font: bold 20px Roboto, sans-serif; white-space: pre;" font-weight="bold" font-size="20px" font-family="Roboto, sans-serif"><tspan x="12" y="34" dominant-baseline="ideographic">Funcionalidad</tspan></text></g></g></g><g id="g-root-tx_construy_8x5rt9ukv8cs-fill" data-item-order="0" transform="translate(32.666656494140625, 329.400390625)"><g id="tx_construy_8x5rt9ukv8cs-fill-merged" stroke="none" fill="#484848"><g><text style="font: 15px Roboto, sans-serif; white-space: pre;" font-size="15px" font-family="Roboto, sans-serif"><tspan x="12" y="27.6" dominant-baseline="ideographic">Construye sobre funcionalidad </tspan><tspan x="12" y="45.6" dominant-baseline="ideographic">esencial</tspan></text></g></g></g><g id="g-root-sy_3_cu_Vector_1cuwtu5ukv6rm-stroke" data-item-order="-299510" transform="translate(428.6666564941406, 281.400390625)"><g id="sy_3_cu_Vector_1cuwtu5ukv6rm-stroke" fill="none" stroke-linecap="round" stroke-linejoin="round" stroke-miterlimit="4" stroke="#ffffff" stroke-width="2"><g><path d="M 70 10L 10 118L 394 118L 334 10L 70 10ZM 70 142L 10 118L 394 118L 334 142L 70 142Z"></path></g></g></g><g id="g-root-sy_3_Subtract_1cuwtu5ukv6rn-stroke" data-item-order="-299505" transform="translate(39.666656494140625, 317.400390625)"><g id="sy_3_Subtract_1cuwtu5ukv6rn-stroke" fill="none" stroke-linecap="round" stroke-linejoin="round" stroke-miterlimit="4" stroke="#4e88e7" stroke-width="2"><g><path d="M 10 10.0016L 438.5 10"></path></g></g></g><g id="g-root-sy_3_Subtract-start_13z9tl9ukv7kc-stroke" data-item-order="-299503" transform="translate(32.666656494140625, 314.400390625)"><g id="sy_3_Subtract-start_13z9tl9ukv7kc-stroke" fill="none" stroke-linecap="round" stroke-linejoin="round" stroke-miterlimit="4" stroke="#484848" stroke-width="2"><g><path d="M 13 16C 11.3443 16 10 14.6557 10 13C 10 11.3443 11.3443 10 13 10C 14.6557 10 16 11.3443 16 13C 16 14.6557 14.6557 16 13 16Z"></path></g></g></g><g id="g-root-sy_2_cu_Vector_13z9tl9ukv7kd-stroke" data-item-order="-299500" transform="translate(500.6666564941406, 161.400390625)"><g id="sy_2_cu_Vector_13z9tl9ukv7kd-stroke" fill="none" stroke-linecap="round" stroke-linejoin="round" stroke-miterlimit="4" stroke="#ffffff" stroke-width="2"><g><path d="M 58 10L 10 106L 250 106L 202 10L 58 10ZM 58 130L 10 106L 250 106L 202 130L 58 130Z"></path></g></g></g><g id="g-root-sy_2_Subtract_zjgbgtukv8cm-stroke" data-item-order="-299495" transform="translate(38.666656494140625, 197.400390625)"><g id="sy_2_Subtract_zjgbgtukv8cm-stroke" fill="none" stroke-linecap="round" stroke-linejoin="round" stroke-miterlimit="4" stroke="#3cc583" stroke-width="2"><g><path d="M 10 10L 501.5 10"></path></g></g></g><g id="g-root-sy_2_Subtract-start_zjgbgtukv8cn-stroke" data-item-order="-299493" transform="translate(32.666656494140625, 194.400390625)"><g id="sy_2_Subtract-start_zjgbgtukv8cn-stroke" fill="none" stroke-linecap="round" stroke-linejoin="round" stroke-miterlimit="4" stroke="#484848" stroke-width="2"><g><path d="M 13 16C 11.3443 16 10 14.6557 10 13C 10 11.3443 11.3443 10 13 10C 14.6557 10 16 11.3443 16 13C 16 14.6557 14.6557 16 13 16Z"></path></g></g></g><g id="g-root-sy_1_cu_Vector_v3mtcdukv94w-stroke" data-item-order="-299490" transform="translate(560.6666259765625, 29.400390625)"><g id="sy_1_cu_Vector_v3mtcdukv94w-stroke" fill="none" stroke-linecap="round" stroke-linejoin="round" stroke-miterlimit="4" stroke="#ffffff" stroke-width="2"><g><path d="M 130 118L 70 10L 10 118L 130 118ZM 10 118L 130 118L 94 142L 46 142L 10 118Z"></path></g></g></g><g id="g-root-sy_1_Subtract_v3mtcdukv94x-stroke" data-item-order="-299485" transform="translate(38.666656494140625, 77.400390625)"><g id="sy_1_Subtract_v3mtcdukv94x-stroke" fill="none" stroke-linecap="round" stroke-linejoin="round" stroke-miterlimit="4" stroke="#92bd39" stroke-width="2"><g><path d="M 10 10L 565 10"></path></g></g></g><g id="g-root-sy_1_Subtract-start_m8ma6lukv6ru-stroke" data-item-order="-299483" transform="translate(32.666656494140625, 74.400390625)"><g id="sy_1_Subtract-start_m8ma6lukv6ru-stroke" fill="none" stroke-linecap="round" stroke-linejoin="round" stroke-miterlimit="4" stroke="#484848" stroke-width="2"><g><path d="M 13 16C 11.3443 16 10 14.6557 10 13C 10 11.3443 11.3443 10 13 10C 14.6557 10 16 11.3443 16 13C 16 14.6557 14.6557 16 13 16Z"></path></g></g></g><g id="g-root-ic_imag_5uux9uumepz-stroke" data-item-order="-1044" transform="translate(605.6666259765625, 82.400390625)"></g><g id="g-root-ic_path_142zcp9uv0gen-stroke" data-item-order="-1044" transform="translate(605.6666259765625, 190.400390625)"></g><g id="g-root-ic_vert_v5i8lpukv85e-stroke" data-item-order="-1044" transform="translate(605.6666259765625, 310.400390625)"></g><g id="g-root-tx_diseogua_zlbqq5ukv7d5-stroke" data-item-order="0" transform="translate(32.666656494140625, 41.400390625)"></g><g id="g-root-tx_utilizae_1cw5s0dukv8y0-stroke" data-item-order="0" transform="translate(32.666656494140625, 89.400390625)"></g><g id="g-root-tx_diseoest_1q7madpukv7d3-stroke" data-item-order="0" transform="translate(32.666656494140625, 161.400390625)"></g><g id="g-root-tx_mejoraco_1umtbf1ukv9qm-stroke" data-item-order="0" transform="translate(32.666656494140625, 209.400390625)"></g><g id="g-root-tx_funciona_4hc9otukv951-stroke" data-item-order="0" transform="translate(32.666656494140625, 281.400390625)"></g><g id="g-root-tx_construy_8x5rt9ukv8cs-stroke" data-item-order="0" transform="translate(32.666656494140625, 329.400390625)"></g></g></g></svg>