<?xml version="1.0" encoding="utf-8" standalone="yes"?>
<!DOCTYPE svg PUBLIC "-//W3C//DTD SVG 1.1//EN" "http://www.w3.org/Graphics/SVG/1.1/DTD/svg11.dtd">
<svg width="900" height="543" viewBox="0 0 900 543" style="fill:none;stroke:none;fill-rule:evenodd;clip-rule:evenodd;stroke-linecap:round;stroke-linejoin:round;stroke-miterlimit:1.5;" version="1.1" xmlns="http://www.w3.org/2000/svg" xmlns:xlink="http://www.w3.org/1999/xlink"><style class="text-font-style fontImports" data-font-family="Roboto">@import url(https://fonts.googleapis.com/css2?family=Roboto:wght@400;700&amp;amp;display=block);</style><g id="items" style="isolation: isolate"><g id="blend" style="mix-blend-mode: normal"><g id="g-root-cp_0_line-0_mczcf8104u3ux-fill" data-item-order="-429377" transform="translate(206, 137)"></g><g id="g-root-cp_0_line-0_2_hx5uas104u4n6-fill" data-item-order="-429373" transform="translate(38, 293)"></g><g id="g-root-cp_0_line-0_4_hx5uas104u4n7-fill" data-item-order="-429345" transform="translate(206, 293)"></g><g id="g-root-cp_0b_g-0b_91iu1w104u5fw-fill" data-item-order="-429340" transform="translate(470.1328125, 5)"><g id="cp_0b_g-0b_91iu1w104u5fw-fill-merged" stroke="none" fill="#666666"><g><path d="M64.048 57.354L52.186 73.499C26.191 108.882 11.52 151.238 10 195 H46.026C47.528 158.909 59.743 124.016 81.198 94.814L93.06 78.669C107.792 58.617 116.32 34.744 117.677 10 H81.601C80.296 27.069 74.238 43.484 64.048 57.354 M297.867 35.96C297.867 85.729 271.069 131.642 227.734 156.118L205.113 168.895C195.693 174.216 189.867 184.197 189.867 195.016 V279.816C184.572 276.753 178.424 275 171.867 275C165.31 275 159.162 276.753 153.867 279.816 V195.016C153.867 171.214 166.684 149.255 187.409 137.549L210.03 124.772C242.06 106.682 261.867 72.745 261.867 35.96 V10 H297.867 V35.96 M201.867 14.791C201.867 54.423 184.828 92.142 155.09 118.34L152.442 120.673C145.019 127.212 138.666 134.723 133.507 142.932C132.961 143.801 131.397 146.381 130.776 147.547C120.673 131.144 104.673 130.01 99.334 130.01C106.888 116.46 116.751 104.138 128.645 93.66L131.292 91.327C153.273 71.964 165.867 44.084 165.867 14.791 V10 H201.867 V14.791"></path></g></g><g id="cp_0b_g-0b_91iu1w104u5fw-fill-merged" stroke="none" fill="#666666"><g><path d="M393.867 10 V54.58C393.867 100.212 371.31 142.893 333.608 168.599L280.207 205.009C280.06 205.109 279.914 205.21 279.768 205.312C278.799 192.182 270.787 181.01 259.496 175.56C259.639 175.461 259.783 175.363 259.927 175.264L313.328 138.855C341.194 119.855 357.867 88.308 357.867 54.58 V10 H393.867"></path></g></g></g><g id="g-root-cp_0a_g-0a_4lpbxg104u685-fill" data-item-order="-429321" transform="translate(488.39453125, 5)"></g><g id="g-root-cp_4_g-4_4lpbxg104u686-fill" data-item-order="-429312" transform="translate(668, 167)"><g id="cp_4_g-4_4lpbxg104u686-fill-merged" stroke="none" fill="#92bd39"><g><path d="M64 77.184C58.705 80.247 52.557 82 46 82C39.443 82 33.295 80.247 28 77.184 V352 H64 V77.184"></path></g></g><g id="cp_4_g-4_4lpbxg104u686-fill-merged" stroke="none" fill="#92bd39"><g><path d="M10 46C10 65.882 26.118 82 46 82C65.882 82 82 65.882 82 46C82 26.118 65.882 10 46 10C26.118 10 10 26.118 10 46"></path></g></g></g><g id="g-root-cp_3_g-3_1ursuqs104u3nz-fill" data-item-order="-429302" transform="translate(596, 270)"><g id="cp_3_g-3_1ursuqs104u3nz-fill-merged" stroke="none" fill="#1eabda"><g><path d="M64 77.441 H63.547C58.356 80.345 52.371 82 46 82C39.629 82 33.644 80.345 28.453 77.441 H28 V249 H64 V77.441"></path></g></g><g id="cp_3_g-3_1ursuqs104u3nz-fill-merged" stroke="none" fill="#1eabda"><g><path d="M10 46C10 65.882 26.118 82 46 82C65.882 82 82 65.882 82 46C82 26.118 65.882 10 46 10C26.118 10 10 26.118 10 46"></path></g></g></g><g id="g-root-cp_2_g-2_6iaw4104u3uo-fill" data-item-order="-429292" transform="translate(524, 125)"><g id="cp_2_g-2_6iaw4104u3uo-fill-merged" stroke="none" fill="#3cc583"><g><path d="M64 77.184C58.705 80.247 52.557 82 46 82C39.443 82 33.295 80.247 28 77.184 V394 H64 V77.184"></path></g></g><g id="cp_2_g-2_6iaw4104u3uo-fill-merged" stroke="none" fill="#3cc583"><g><path d="M10 46C10 65.882 26.118 82 46 82C65.882 82 82 65.882 82 46C82 26.118 65.882 10 46 10C26.118 10 10 26.118 10 46"></path></g></g></g><g id="g-root-cp_1_g-1_1qbzcmc104u4g9-fill" data-item-order="-429282" transform="translate(452, 185)"><g id="cp_1_g-1_1qbzcmc104u4g9-fill-merged" stroke="none" fill="#4e88e7"><g><path d="M64 77.184C58.705 80.247 52.557 82 46 82C39.443 82 33.295 80.247 28 77.184 V334 H64 V77.184"></path></g></g><g id="cp_1_g-1_1qbzcmc104u4g9-fill-merged" stroke="none" fill="#4e88e7"><g><path d="M10 46C10 65.882 26.118 82 46 82C65.882 82 82 65.882 82 46C82 26.118 65.882 10 46 10C26.118 10 10 26.118 10 46"></path></g></g></g><g id="g-root-cp_4_dashed-4_1lw5uhw104u58i-fill" data-item-order="-429271" transform="translate(704, 238.9609375)"></g><g id="g-root-cp_3_dashed-3_1lw5uhw104u58j-fill" data-item-order="-429267" transform="translate(632, 341.97265625)"></g><g id="g-root-cp_2_dashed-2_1lw5uhw104u58k-fill" data-item-order="-429263" transform="translate(560, 197)"></g><g id="g-root-cp_1_dashed-1_1d0iu90104u619-fill" data-item-order="-429259" transform="translate(488, 257)"></g><g id="g-root-ic_orga_zrk884104u3gv-fill" data-item-order="0" transform="translate(467, 200)"></g><g id="g-root-tx_gualaate_qu1spw104u60w-fill" data-item-order="0" transform="translate(38, 197)"><g id="tx_gualaate_qu1spw104u60w-fill-merged" stroke="none" fill="#484848"><g><text style="font: 15px Roboto, sans-serif; white-space: pre;" font-size="15px" font-family="Roboto, sans-serif"><tspan x="12" y="27.6" dominant-baseline="ideographic">Guía la atención del </tspan><tspan x="12" y="45.6" dominant-baseline="ideographic">usuario hacia la </tspan><tspan x="12" y="63.6" dominant-baseline="ideographic">información más </tspan><tspan x="12" y="81.6" dominant-baseline="ideographic">importante primero.</tspan></text></g></g></g><g id="g-root-tx_mejorala_1d2e9ic104u51q-fill" data-item-order="0" transform="translate(230, 377)"><g id="tx_mejorala_1d2e9ic104u51q-fill-merged" stroke="none" fill="#484848"><g><text style="font: 15px Roboto, sans-serif; white-space: pre;" font-size="15px" font-family="Roboto, sans-serif"><tspan x="12" y="27.6" dominant-baseline="ideographic">Mejora la usabilidad </tspan><tspan x="12" y="45.6" dominant-baseline="ideographic">con controles </tspan><tspan x="12" y="63.6" dominant-baseline="ideographic">lógicos y </tspan><tspan x="12" y="81.6" dominant-baseline="ideographic">predecibles.</tspan></text></g></g></g><g id="g-root-tx_comunica_dj7rfo104u4g2-fill" data-item-order="0" transform="translate(230, 173)"><g id="tx_comunica_dj7rfo104u4g2-fill-merged" stroke="none" fill="#484848"><g><text style="font: 15px Roboto, sans-serif; white-space: pre;" font-size="15px" font-family="Roboto, sans-serif"><tspan x="12" y="30.6" dominant-baseline="ideographic">Comunica estados y </tspan><tspan x="12" y="48.6" dominant-baseline="ideographic">emociones, no solo </tspan><tspan x="12" y="66.6" dominant-baseline="ideographic">adorna.</tspan></text></g></g></g><g id="g-root-ic_1_v3mn50104ka2p-fill" data-item-order="0" transform="translate(539, 140)"></g><g id="g-root-tx_usodelco_hz19k4104u3nt-fill" data-item-order="0" transform="translate(230, 137)"><g id="tx_usodelco_hz19k4104u3nt-fill-merged" stroke="none" fill="#3cc583"><g><text style="font: bold 20px Roboto, sans-serif; white-space: pre;" font-weight="bold" font-size="20px" font-family="Roboto, sans-serif"><tspan x="12" y="34" dominant-baseline="ideographic">Uso del Color</tspan></text></g></g></g><g id="g-root-ic_sear_hwjjj8104kavf-fill" data-item-order="0" transform="translate(611, 284)"></g><g id="g-root-tx_tipograf_7r92c104u60z-fill" data-item-order="0" transform="translate(38, 317)"><g id="tx_tipograf_7r92c104u60z-fill-merged" stroke="none" fill="#1eabda"><g><text style="font: bold 20px Roboto, sans-serif; white-space: pre;" font-weight="bold" font-size="20px" font-family="Roboto, sans-serif"><tspan x="12" y="34" dominant-baseline="ideographic">Tipografía </tspan><tspan x="12" y="58" dominant-baseline="ideographic">Legible</tspan></text></g></g></g><g id="g-root-tx_navegaci_1ly19r8104u491-fill" data-item-order="0" transform="translate(230, 317)"><g id="tx_navegaci_1ly19r8104u491-fill-merged" stroke="none" fill="#92bd39"><g><text style="font: bold 20px Roboto, sans-serif; white-space: pre;" font-weight="bold" font-size="20px" font-family="Roboto, sans-serif"><tspan x="12" y="34" dominant-baseline="ideographic">Navegación </tspan><tspan x="12" y="58" dominant-baseline="ideographic">Intuitiva</tspan></text></g></g></g><g id="g-root-tx_jerarqua_v9vauc104u58n-fill" data-item-order="0" transform="translate(38, 137)"><g id="tx_jerarqua_v9vauc104u58n-fill-merged" stroke="none" fill="#4e88e7"><g><text style="font: bold 20px Roboto, sans-serif; white-space: pre;" font-weight="bold" font-size="20px" font-family="Roboto, sans-serif"><tspan x="12" y="34" dominant-baseline="ideographic">Jerarquía </tspan><tspan x="12" y="58" dominant-baseline="ideographic">Visual</tspan></text></g></g></g><g id="g-root-tx_reducela_1qdurvo104u3gs-fill" data-item-order="0" transform="translate(38, 377)"><g id="tx_reducela_1qdurvo104u3gs-fill-merged" stroke="none" fill="#484848"><g><text style="font: 15px Roboto, sans-serif; white-space: pre;" font-size="15px" font-family="Roboto, sans-serif"><tspan x="12" y="27.6" dominant-baseline="ideographic">Reduce la carga </tspan><tspan x="12" y="45.6" dominant-baseline="ideographic">cognitiva con </tspan><tspan x="12" y="63.6" dominant-baseline="ideographic">fuentes claras y </tspan><tspan x="12" y="81.6" dominant-baseline="ideographic">tamaños.</tspan></text></g></g></g><g id="g-root-ic_arro_qtfhyc104oirq-fill" data-item-order="0" transform="translate(683, 182)"></g><g id="g-root-cp_0_line-0_mczcf8104u3ux-stroke" data-item-order="-429377" transform="translate(206, 137)"><g id="cp_0_line-0_mczcf8104u3ux-stroke" fill="none" stroke-linecap="round" stroke-linejoin="round" stroke-miterlimit="4" stroke="#484848" stroke-width="2"><g><path d="M 10 10L 10 166"></path></g></g></g><g id="g-root-cp_0_line-0_2_hx5uas104u4n6-stroke" data-item-order="-429373" transform="translate(38, 293)"><g id="cp_0_line-0_2_hx5uas104u4n6-stroke" fill="none" stroke-linecap="round" stroke-linejoin="round" stroke-miterlimit="4" stroke="#484848" stroke-width="2"><g><path d="M 346 10L 10 10"></path></g></g></g><g id="g-root-cp_0_line-0_4_hx5uas104u4n7-stroke" data-item-order="-429345" transform="translate(206, 293)"><g id="cp_0_line-0_4_hx5uas104u4n7-stroke" fill="none" stroke-linecap="round" stroke-linejoin="round" stroke-miterlimit="4" stroke="#484848" stroke-width="2"><g><path d="M 10 10L 10 190"></path></g></g></g><g id="g-root-cp_0b_g-0b_91iu1w104u5fw-stroke" data-item-order="-429340" transform="translate(470.1328125, 5)"><g id="cp_0b_g-0b_91iu1w104u5fw-stroke" fill="none" stroke-linecap="round" stroke-linejoin="round" stroke-miterlimit="4" stroke="#ffffff" stroke-width="2"><g><path d="M 10.000001 195C 11.520401 151.2383 26.191101 108.8817 52.186301 73.4994L 64.047901 57.3544C 74.2383 43.484 80.296201 27.0686 81.601301 10M 46.026001 195C 47.528401 158.909 59.743301 124.0164 81.198001 94.8141L 93.059601 78.6691C 107.791701 58.6171 116.319701 34.7443 117.676701 10M 165.868001 10L 165.868001 14.7908C 165.868001 44.0842 153.273601 71.9636 131.2931 91.3275L 128.645701 93.6597C 116.574801 104.2936 106.596101 116.8257 99.000001 130.6134M 201.868001 10L 201.868001 14.7908C 201.868001 54.423 184.828601 92.1423 155.090201 118.3404L 152.442801 120.6726C 144.998901 127.2303 138.6314 134.7648 133.465101 143C 132.885601 143.8867 131.5945 145.9995 131.066601 147.3571M 261.867188 10L 261.867188 35.9597C 261.867188 72.7455 242.059788 106.6815 210.029888 124.7724L 187.408888 137.5491C 166.683688 149.255 153.867188 171.2136 153.867188 195.0161L 153.867188 280M 297.867188 10L 297.867188 35.9597C 297.867188 85.7287 271.068888 131.6421 227.734388 156.1181L 205.113388 168.8947C 195.692888 174.2156 189.867188 184.1968 189.867188 195.0161L 189.867188 280"></path></g></g><g id="cp_0b_g-0b_91iu1w104u5fw-stroke" fill="none" stroke-linecap="round" stroke-linejoin="round" stroke-miterlimit="4" stroke="#ffffff" stroke-width="2"><g><path d="M 357.868035 10L 357.868035 54.5797C 357.868035 88.3075 341.195235 119.8548 313.328335 138.8549L 259.927735 175.2644M 393.867935 10L 393.867935 54.5797C 393.867935 100.2115 371.310735 142.893 333.608435 168.5991L 280.207835 205.0086"></path></g></g></g><g id="g-root-cp_0a_g-0a_4lpbxg104u685-stroke" data-item-order="-429321" transform="translate(488.39453125, 5)"><g id="cp_0a_g-0a_4lpbxg104u685-stroke" fill="none" stroke-linecap="round" stroke-linejoin="round" stroke-miterlimit="4" stroke="#ffffff" stroke-width="2" stroke-dasharray="5.0, 7.0"><g><path d="M 10 190C 12.402 151.8553 25.695 115.0991 48.4282 84.1567L 60.2898 68.0117C 72.7513 51.0504 80.046 30.907 81.3813 10M 165.604138 10L 165.604138 14.7908C 165.604138 49.2536 150.787338 82.0529 124.927838 104.8339C 115.147838 113.4496 105.814038 123.233 99.335938 134.6276M 260.605469 10L 260.605469 35.5772C 260.605469 78.9238 237.518369 118.9125 200.185169 140.2299L 177.773569 153.0271C 162.840269 161.5541 153.605469 177.5495 153.605469 194.8882L 153.605469 275M 255.392578 187.1904L 305.205678 153.227C 337.990178 130.8739 357.605278 93.7595 357.605278 54.0797L 357.605278 10"></path></g></g></g><g id="g-root-cp_4_g-4_4lpbxg104u686-stroke" data-item-order="-429312" transform="translate(668, 167)"><g id="cp_4_g-4_4lpbxg104u686-stroke" fill="none" stroke-linecap="round" stroke-linejoin="round" stroke-miterlimit="4" stroke="#ffffff" stroke-width="2"><g><path d="M 64 76.988586L 64 351.999939M 28 76.988586L 28 351.999939"></path></g></g><g id="cp_4_g-4_4lpbxg104u686-stroke" fill="none" stroke-linecap="round" stroke-linejoin="round" stroke-miterlimit="4" stroke="#ffffff" stroke-width="2"><g><path d="M 10 46C 10 65.882251 26.117749 82 46 82C 65.882251 82 82 65.882251 82 46C 82 26.117749 65.882251 10 46 10C 26.117749 10 10 26.117749 10 46"></path></g></g></g><g id="g-root-cp_3_g-3_1ursuqs104u3nz-stroke" data-item-order="-429302" transform="translate(596, 270)"><g id="cp_3_g-3_1ursuqs104u3nz-stroke" fill="none" stroke-linecap="round" stroke-linejoin="round" stroke-miterlimit="4" stroke="#ffffff" stroke-width="2"><g><path d="M 64 77.443512L 64 249.000031M 28 77.443512L 28 249.000031"></path></g></g><g id="cp_3_g-3_1ursuqs104u3nz-stroke" fill="none" stroke-linecap="round" stroke-linejoin="round" stroke-miterlimit="4" stroke="#ffffff" stroke-width="2"><g><path d="M 10 46C 10 65.882251 26.117749 82 46 82C 65.882251 82 82 65.882251 82 46C 82 26.117749 65.882251 10 46 10C 26.117749 10 10 26.117749 10 46"></path></g></g></g><g id="g-root-cp_2_g-2_6iaw4104u3uo-stroke" data-item-order="-429292" transform="translate(524, 125)"><g id="cp_2_g-2_6iaw4104u3uo-stroke" fill="none" stroke-linecap="round" stroke-linejoin="round" stroke-miterlimit="4" stroke="#ffffff" stroke-width="2"><g><path d="M 64 77.127281L 64 394.000092M 28 77.127281L 28 394.000092"></path></g></g><g id="cp_2_g-2_6iaw4104u3uo-stroke" fill="none" stroke-linecap="round" stroke-linejoin="round" stroke-miterlimit="4" stroke="#ffffff" stroke-width="2"><g><path d="M 10 46C 10 65.882251 26.117749 82 46 82C 65.882251 82 82 65.882251 82 46C 82 26.117749 65.882251 10 46 10C 26.117749 10 10 26.117749 10 46"></path></g></g></g><g id="g-root-cp_1_g-1_1qbzcmc104u4g9-stroke" data-item-order="-429282" transform="translate(452, 185)"><g id="cp_1_g-1_1qbzcmc104u4g9-stroke" fill="none" stroke-linecap="round" stroke-linejoin="round" stroke-miterlimit="4" stroke="#ffffff" stroke-width="2"><g><path d="M 64 77L 64 334M 28 77L 28 334"></path></g></g><g id="cp_1_g-1_1qbzcmc104u4g9-stroke" fill="none" stroke-linecap="round" stroke-linejoin="round" stroke-miterlimit="4" stroke="#ffffff" stroke-width="2"><g><path d="M 10 46C 10 65.882251 26.117749 82 46 82C 65.882251 82 82 65.882251 82 46C 82 26.117749 65.882251 10 46 10C 26.117749 10 10 26.117749 10 46"></path></g></g></g><g id="g-root-cp_4_dashed-4_1lw5uhw104u58i-stroke" data-item-order="-429271" transform="translate(704, 238.9609375)"><g id="cp_4_dashed-4_1lw5uhw104u58i-stroke" fill="none" stroke-linecap="round" stroke-linejoin="round" stroke-miterlimit="4" stroke="#ffffff" stroke-width="2" stroke-dasharray="5.0, 7.0"><g><path d="M 10 10L 10 280.039215"></path></g></g></g><g id="g-root-cp_3_dashed-3_1lw5uhw104u58j-stroke" data-item-order="-429267" transform="translate(632, 341.97265625)"><g id="cp_3_dashed-3_1lw5uhw104u58j-stroke" fill="none" stroke-linecap="round" stroke-linejoin="round" stroke-miterlimit="4" stroke="#ffffff" stroke-width="2" stroke-dasharray="5.0, 7.0"><g><path d="M 10 10L 10 177.029221"></path></g></g></g><g id="g-root-cp_2_dashed-2_1lw5uhw104u58k-stroke" data-item-order="-429263" transform="translate(560, 197)"><g id="cp_2_dashed-2_1lw5uhw104u58k-stroke" fill="none" stroke-linecap="round" stroke-linejoin="round" stroke-miterlimit="4" stroke="#ffffff" stroke-width="2" stroke-dasharray="5.0, 7.0"><g><path d="M 10 10L 10 322"></path></g></g></g><g id="g-root-cp_1_dashed-1_1d0iu90104u619-stroke" data-item-order="-429259" transform="translate(488, 257)"><g id="cp_1_dashed-1_1d0iu90104u619-stroke" fill="none" stroke-linecap="round" stroke-linejoin="round" stroke-miterlimit="4" stroke="#ffffff" stroke-width="2" stroke-dasharray="5.0, 7.0"><g><path d="M 10 10L 10 261.999985"></path></g></g></g><g id="g-root-ic_orga_zrk884104u3gv-stroke" data-item-order="0" transform="translate(467, 200)"><g id="ic_orga_zrk884104u3gv-stroke" fill="none" stroke-linecap="round" stroke-linejoin="round" stroke-miterlimit="4" stroke="#ffffff" stroke-width="2"><g><path d="M 15.55079 40.136223C 17.72541 40.136223 19.488289 38.373276 19.488289 36.198727C 19.488289 34.024174 17.72541 32.261227 15.55079 32.261227C 13.376152 32.261227 11.613281 34.024174 11.613281 36.198727C 11.613281 38.373276 13.376152 40.136223 15.55079 40.136223ZM 16.015625 32.320724C 17.028839 28.844175 19.262138 25.849609 22.305475 23.887037C 25.348829 21.924448 28.997999 21.125502 32.582874 21.636869C 36.167927 22.148237 39.448124 23.935583 41.821476 26.670797C 44.194653 29.405926 45.501724 32.905399 45.502426 36.526676L 45.502426 40.382275M 10 10M 50.386677 35.629623L 45.502075 40.514225L 40.617649 35.629623"></path></g></g></g><g id="g-root-tx_gualaate_qu1spw104u60w-stroke" data-item-order="0" transform="translate(38, 197)"></g><g id="g-root-tx_mejorala_1d2e9ic104u51q-stroke" data-item-order="0" transform="translate(230, 377)"></g><g id="g-root-tx_comunica_dj7rfo104u4g2-stroke" data-item-order="0" transform="translate(230, 173)"></g><g id="g-root-ic_1_v3mn50104ka2p-stroke" data-item-order="0" transform="translate(539, 140)"><g id="ic_1_v3mn50104ka2p-stroke" fill="none" stroke-linecap="round" stroke-linejoin="round" stroke-miterlimit="4" stroke="#ffffff" stroke-width="2"><g><path d="M 27.5 15.25C 27.5 17.182997 29.067003 18.75 31 18.75C 32.932995 18.75 34.5 17.182997 34.5 15.25C 34.5 13.317003 32.932995 11.75 31 11.75C 29.067003 11.75 27.5 13.317003 27.5 15.25M 27.5 46.75C 27.5 48.682999 29.067003 50.25 31 50.25C 32.932995 50.25 34.5 48.682999 34.5 46.75C 34.5 44.817001 32.932995 43.25 31 43.25C 29.067003 43.25 27.5 44.817001 27.5 46.75M 43.25 31C 43.25 32.932995 44.817001 34.5 46.75 34.5C 48.682999 34.5 50.25 32.932995 50.25 31C 50.25 29.067003 48.682999 27.5 46.75 27.5C 44.817001 27.5 43.25 29.067003 43.25 31M 11.75 31C 11.75 32.932995 13.317003 34.5 15.25 34.5C 17.182997 34.5 18.75 32.932995 18.75 31C 18.75 29.067003 17.182997 27.5 15.25 27.5C 13.317003 27.5 11.75 29.067003 11.75 31M 31 18.75L 31 43.25M 18.75 31L 43.25 31M 38.630001 42.130001C 38.630001 44.062996 40.197002 45.630001 42.130001 45.630001C 44.062996 45.630001 45.630001 44.062996 45.630001 42.130001C 45.630001 40.197002 44.062996 38.630001 42.130001 38.630001C 40.197002 38.630001 38.630001 40.197002 38.630001 42.130001M 16.370001 19.869999C 16.370001 21.802996 17.937004 23.369999 19.869999 23.369999C 21.802996 23.369999 23.369999 21.802996 23.369999 19.869999C 23.369999 17.937004 21.802996 16.370001 19.869999 16.370001C 17.937004 16.370001 16.370001 17.937004 16.370001 19.869999M 22.3375 22.3375L 27.5 27.5M 34.5 34.5L 39.662502 39.662502M 38.630001 19.869999C 38.630001 21.802996 40.197002 23.369999 42.130001 23.369999C 44.062996 23.369999 45.630001 21.802996 45.630001 19.869999C 45.630001 17.937004 44.062996 16.370001 42.130001 16.370001C 40.197002 16.370001 38.630001 17.937004 38.630001 19.869999M 16.370001 42.130001C 16.370001 44.062996 17.937004 45.630001 19.869999 45.630001C 21.802996 45.630001 23.369999 44.062996 23.369999 42.130001C 23.369999 40.197002 21.802996 38.630001 19.869999 38.630001C 17.937004 38.630001 16.370001 40.197002 16.370001 42.130001M 34.5 27.5L 39.662502 22.3375M 22.3375 39.662502L 27.5 34.5"></path></g></g></g><g id="g-root-tx_usodelco_hz19k4104u3nt-stroke" data-item-order="0" transform="translate(230, 137)"></g><g id="g-root-ic_sear_hwjjj8104kavf-stroke" data-item-order="0" transform="translate(611, 284)"><g id="ic_sear_hwjjj8104kavf-stroke" fill="none" stroke-linecap="round" stroke-linejoin="round" stroke-miterlimit="4" stroke="#ffffff" stroke-width="2"><g><path d="M 31.875 39.800751C 31.875 44.178017 35.423477 47.726498 39.800751 47.726498C 44.178017 47.726498 47.726498 44.178017 47.726498 39.800751C 47.726498 35.423477 44.178017 31.875 39.800751 31.875C 35.423477 31.875 31.875 35.423477 31.875 39.800751ZM 51.125 51.125L 45.441002 45.441002M 17.875 24.875L 34.5 24.875M 17.875 30.125L 28.375 30.125M 17.875 19.625L 30.125 19.625M 17.875 35.375L 24.875 35.375M 17.875 40.625L 24.875 40.625M 31.875 51.125L 12.625 51.125C 11.658502 51.125 10.875 50.341499 10.875 49.375L 10.875 12.625C 10.875 11.658502 11.658502 10.875 12.625 10.875L 35.887749 10.875C 36.351841 10.875099 36.79689 11.059539 37.125 11.38775L 43.612251 17.875C 43.940464 18.203112 44.124901 18.648159 44.125 19.112249L 44.125 26.625"></path></g></g></g><g id="g-root-tx_tipograf_7r92c104u60z-stroke" data-item-order="0" transform="translate(38, 317)"></g><g id="g-root-tx_navegaci_1ly19r8104u491-stroke" data-item-order="0" transform="translate(230, 317)"></g><g id="g-root-tx_jerarqua_v9vauc104u58n-stroke" data-item-order="0" transform="translate(38, 137)"></g><g id="g-root-tx_reducela_1qdurvo104u3gs-stroke" data-item-order="0" transform="translate(38, 377)"></g><g id="g-root-ic_arro_qtfhyc104oirq-stroke" data-item-order="0" transform="translate(683, 182)"><g id="ic_arro_qtfhyc104oirq-stroke" fill="none" stroke-linecap="round" stroke-linejoin="round" stroke-miterlimit="4" stroke="#ffffff" stroke-width="2"><g><path d="M 32.2075 49.8125C 32.387337 50.503689 32.969151 51.016239 33.677498 51.107498C 34.354755 51.211155 35.016548 50.844288 35.287498 50.215L 51.037502 13.2025C 51.240189 12.592723 51.092392 11.920909 50.6525 11.4525C 50.18409 11.012609 49.512276 10.86481 48.9025 11.0675L 11.75 26.7125C 11.12071 26.983452 10.753847 27.645245 10.8575 28.3225C 10.94876 29.030848 11.461311 29.612661 12.1525 29.792501L 28.147499 33.817501Z"></path></g></g></g></g></g></svg>