<?xml version="1.0" encoding="utf-8" standalone="yes"?>
<!DOCTYPE svg PUBLIC "-//W3C//DTD SVG 1.1//EN" "http://www.w3.org/Graphics/SVG/1.1/DTD/svg11.dtd">
<svg width="900" height="710" viewBox="0 0 900 710" style="fill:none;stroke:none;fill-rule:evenodd;clip-rule:evenodd;stroke-linecap:round;stroke-linejoin:round;stroke-miterlimit:1.5;" version="1.1" xmlns="http://www.w3.org/2000/svg" xmlns:xlink="http://www.w3.org/1999/xlink"><style class="text-font-style fontImports" data-font-family="Roboto">@import url(https://fonts.googleapis.com/css2?family=Roboto:wght@400;700&amp;amp;display=block);</style><g id="items" style="isolation: isolate"><g id="blend" style="mix-blend-mode: normal"><g id="g-root-cp_4_g-4_1q8v2eu10eh3b6-fill" data-item-order="-583612" transform="translate(482.030029296875, 280.01171875)"><g id="cp_4_g-4_1q8v2eu10eh3b6-fill-merged" stroke="none" fill="url(#gradient-4dd3ff-378786070)"><g><path d="M144.17 202.89L90.63 148.96L10 67.74 V10L90.62 91.21L144.17 145.15C248.11 135.56 316.33 115.52 360.82 93.99 V324.96C316.33 346.49 248.11 366.53 144.17 376.12 V202.89 M360.82 93.99C316.33 115.52 248.11 135.56 144.17 145.15L90.63 91.21L10 10L259.91 69.83L360.82 93.99"></path></g></g></g><g id="g-root-cp_3_g-3_1hd825y10eh43v-fill" data-item-order="-583608" transform="translate(348.5899963378906, 337.75)"><g id="cp_3_g-3_1hd825y10eh43v-fill-merged" stroke="none" fill="url(#gradient-bceb57-497517668)"><g><path d="M277.61 145.15 V318.38C236.85 322.13 190.59 324.28 138.11 324.28C90.3 324.28 47.79 322.29 10 318.79 V145.56C47.79 149.05 90.3 151.05 138.11 151.05C190.59 151.05 236.85 148.9 277.61 145.15 M277.61 145.15C236.85 148.9 190.59 151.05 138.11 151.05C90.3 151.05 47.79 149.06 10 145.56L143.44 10L224.05 91.21L277.6 145.15"></path></g></g></g><g id="g-root-cp_2_g-2_1cy114m10eh1qc-fill" data-item-order="-583604" transform="translate(136.23001098632812, 407)"><g id="cp_2_g-2_1cy114m10eh1qc-fill-merged" stroke="none" fill="url(#gradient-64edab-240055791)"><g><path d="M222.37 134.06 V249.54C121.77 240.23 54.64 220.25 10 198.81 V83.33C54.64 104.78 121.77 124.75 222.37 134.06 M287.64 10L222.37 76.31 V134.05C121.77 124.74 54.64 104.76 10 83.32L287.64 10"></path></g></g></g><g id="g-root-cp_1_g-1_142e0vq10eh2j1-fill" data-item-order="-583600" transform="translate(49.5, 451.73828125)"><defs><linearGradient id="gradient-4dd3ff-378786070" x2="0" y2="1"><stop offset="0" stop-color="#7fdfff"></stop><stop offset="1" stop-color="#1ac6ff"></stop></linearGradient><linearGradient id="gradient-bceb57-497517668" x2="0" y2="1"><stop offset="0" stop-color="#cff976"></stop><stop offset="1" stop-color="#a8dd38"></stop></linearGradient><linearGradient id="gradient-64edab-240055791" x2="0" y2="1"><stop offset="0" stop-color="#83fac1"></stop><stop offset="1" stop-color="#44e095"></stop></linearGradient><linearGradient id="gradient-76aaff-163240667" x2="0" y2="1"><stop offset="0" stop-color="#9cc2ff"></stop><stop offset="1" stop-color="#4f92ff"></stop></linearGradient></defs><g id="cp_1_g-1_142e0vq10eh2j1-fill-merged" stroke="none" fill="url(#gradient-76aaff-163240667)"><g><path d="M96.73 96.33 V154.07C21.04 117.71 10 77.12 10 77.12 V10C10 17.94 12.19 25.71 16.4 32.45C25.49 46.99 46.55 71.52 93.22 94.61C94.37 95.19 95.54 95.76 96.72 96.33 M204.96 10.01L96.73 38.59 V96.33C95.55 95.77 94.38 95.19 93.23 94.61C46.56 71.51 25.49 46.99 16.41 32.45C12.2 25.72 10.01 17.94 10.01 10 H204.97"></path></g></g></g><g id="g-root-cp_0_arrow_142e0vq10eh2j2-fill" data-item-order="-583593" transform="translate(499.5, 207)"></g><g id="g-root-cp_0_arrow_1_zmkira10eh3bb-fill" data-item-order="-583587" transform="translate(691.5, 207)"></g><g id="g-root-cp_0_arrow_2_zmkira10eh3bc-fill" data-item-order="-583581" transform="translate(307.5, 207)"></g><g id="g-root-cp_0_arrow_3_v6r0mu10eh43l-fill" data-item-order="-583575" transform="translate(115.5, 207)"></g><g id="g-root-tx_tooltips_909z3q10eh3bf-fill" data-item-order="0" transform="translate(56, 39)"><g id="tx_tooltips_909z3q10eh3bf-fill-merged" stroke="none" fill="#4e88e7"><g><text style="font: bold 20px Roboto, sans-serif; white-space: pre;" font-weight="bold" font-size="20px" font-family="Roboto, sans-serif"><tspan x="39.91" y="34" dominant-baseline="ideographic">Tooltips </tspan><tspan x="16.81" y="58" dominant-baseline="ideographic">Contextuales</tspan></text></g></g></g><g id="g-root-tx_drillthr_1cz9zau10eh3wl-fill" data-item-order="0" transform="translate(248, 75)"><g id="tx_drillthr_1cz9zau10eh3wl-fill-merged" stroke="none" fill="#3cc583"><g><text style="font: bold 20px Roboto, sans-serif; white-space: pre;" font-weight="bold" font-size="20px" font-family="Roboto, sans-serif"><tspan x="16.41" y="34" dominant-baseline="ideographic">Drill-through </tspan><tspan x="29.81" y="58" dominant-baseline="ideographic">Funcional</tspan></text></g></g></g><g id="g-root-tx_animacio_dhywhi10eh1jj-fill" data-item-order="0" transform="translate(440, 75)"><g id="tx_animacio_dhywhi10eh1jj-fill-merged" stroke="none" fill="#92bd39"><g><text style="font: bold 20px Roboto, sans-serif; white-space: pre;" font-weight="bold" font-size="20px" font-family="Roboto, sans-serif"><tspan x="15.04" y="34" dominant-baseline="ideographic">Animaciones </tspan><tspan x="42.54" y="58" dominant-baseline="ideographic">Sutiles</tspan></text></g></g></g><g id="g-root-tx_visualiz_1qbzfue10eh4ht-fill" data-item-order="0" transform="translate(620, 75)"><g id="tx_visualiz_1qbzfue10eh4ht-fill-merged" stroke="none" fill="#1eabda"><g><text style="font: bold 20px Roboto, sans-serif; white-space: pre;" font-weight="bold" font-size="20px" font-family="Roboto, sans-serif"><tspan x="15.93" y="34" dominant-baseline="ideographic">Visualizaciones </tspan><tspan x="37.59" y="58" dominant-baseline="ideographic">Avanzadas</tspan></text></g></g></g><g id="g-root-tx_proporci_1qaqho610eh2bo-fill" data-item-order="0" transform="translate(56, 99)"><g id="tx_proporci_1qaqho610eh2bo-fill-merged" stroke="none" fill="#484848"><g><text style="font: 15px Roboto, sans-serif; white-space: pre;" font-size="15px" font-family="Roboto, sans-serif"><tspan x="30.91" y="30.6" dominant-baseline="ideographic">Proporcionar </tspan><tspan x="33.92" y="48.6" dominant-baseline="ideographic">información </tspan><tspan x="35.59" y="66.6" dominant-baseline="ideographic">detallada al </tspan><tspan x="12.09" y="84.6" dominant-baseline="ideographic">interactuar con los </tspan><tspan x="53.32" y="102.6" dominant-baseline="ideographic">datos.</tspan></text></g></g></g><g id="g-root-tx_permitir_zofy0m10eh2bq-fill" data-item-order="0" transform="translate(248, 135)"><g id="tx_permitir_zofy0m10eh2bq-fill-merged" stroke="none" fill="#484848"><g><text style="font: 15px Roboto, sans-serif; white-space: pre;" font-size="15px" font-family="Roboto, sans-serif"><tspan x="12.67" y="30.6" dominant-baseline="ideographic">Permitir el análisis </tspan><tspan x="11.76" y="48.6" dominant-baseline="ideographic">granular sin perder </tspan><tspan x="35.34" y="66.6" dominant-baseline="ideographic">el contexto.</tspan></text></g></g></g><g id="g-root-tx_resaltar_4mbw8m10eh340-fill" data-item-order="0" transform="translate(434, 135)"><g id="tx_resaltar_4mbw8m10eh340-fill-merged" stroke="none" fill="#484848"><g><text style="font: 15px Roboto, sans-serif; white-space: pre;" font-size="15px" font-family="Roboto, sans-serif"><tspan x="15.93" y="30.6" dominant-baseline="ideographic">Resaltar cambios o </tspan><tspan x="33.44" y="48.6" dominant-baseline="ideographic">tendencias de </tspan><tspan x="24.71" y="66.6" dominant-baseline="ideographic">manera efectiva.</tspan></text></g></g></g><g id="g-root-tx_revelarp_145ieba10eh3pm-fill" data-item-order="0" transform="translate(632, 135)"><g id="tx_revelarp_145ieba10eh3pm-fill-merged" stroke="none" fill="#484848"><g><text style="font: 15px Roboto, sans-serif; white-space: pre;" font-size="15px" font-family="Roboto, sans-serif"><tspan x="16.76" y="30.6" dominant-baseline="ideographic">Revelar patrones, </tspan><tspan x="22.88" y="48.6" dominant-baseline="ideographic">correlaciones o </tspan><tspan x="37.36" y="66.6" dominant-baseline="ideographic">anomalías.</tspan></text></g></g></g><g id="g-root-cp_4_g-4_1q8v2eu10eh3b6-stroke" data-item-order="-583612" transform="translate(482.030029296875, 280.01171875)"><g id="cp_4_g-4_1q8v2eu10eh3b6-stroke" fill="none" stroke-linecap="round" stroke-linejoin="round" stroke-miterlimit="4" stroke="#484848" stroke-width="2"><g><path d="M 360.82 93.99L 360.82 324.96C 316.33 346.49 248.11 366.53 144.17 376.12L 144.17 145.15C 248.11 135.56 316.33 115.52 360.82 93.99ZM 360.82 93.99C 316.33 115.52 248.11 135.56 144.17 145.15L 90.63 91.21L 90.62 91.21L 10 10L 259.91 69.83L 259.92 69.83L 360.82 93.99ZM 144.17 145.15L 144.17 202.89L 90.63 148.96L 90.62 148.96L 10 67.74L 10 10L 90.62 91.21L 90.63 91.21L 144.17 145.15Z"></path></g></g></g><g id="g-root-cp_3_g-3_1hd825y10eh43v-stroke" data-item-order="-583608" transform="translate(348.5899963378906, 337.75)"><g id="cp_3_g-3_1hd825y10eh43v-stroke" fill="none" stroke-linecap="round" stroke-linejoin="round" stroke-miterlimit="4" stroke="#484848" stroke-width="2"><g><path d="M 277.61 145.15L 277.61 318.38C 236.85 322.13 190.59 324.28 138.11 324.28C 90.3 324.28 47.79 322.29 10 318.79L 10 145.56C 47.79 149.05 90.3 151.05 138.11 151.05C 190.59 151.05 236.85 148.9 277.61 145.15ZM 277.61 145.15C 236.85 148.9 190.59 151.05 138.11 151.05C 90.3 151.05 47.79 149.06 10 145.56L 143.44 10L 224.05 91.21L 224.06 91.21L 277.6 145.15L 277.61 145.15Z"></path></g></g></g><g id="g-root-cp_2_g-2_1cy114m10eh1qc-stroke" data-item-order="-583604" transform="translate(136.23001098632812, 407)"><g id="cp_2_g-2_1cy114m10eh1qc-stroke" fill="none" stroke-linecap="round" stroke-linejoin="round" stroke-miterlimit="4" stroke="#484848" stroke-width="2"><g><path d="M 222.37 134.06L 222.37 249.54C 121.77 240.23 54.64 220.25 10 198.81L 10 83.33C 54.64 104.78 121.77 124.75 222.37 134.06ZM 287.64 10L 222.37 76.31L 222.37 134.05C 121.77 124.74 54.64 104.76 10 83.32L 287.64 10Z"></path></g></g></g><g id="g-root-cp_1_g-1_142e0vq10eh2j1-stroke" data-item-order="-583600" transform="translate(49.5, 451.73828125)"><g id="cp_1_g-1_142e0vq10eh2j1-stroke" fill="none" stroke-linecap="round" stroke-linejoin="round" stroke-miterlimit="4" stroke="#484848" stroke-width="2"><g><path d="M 96.73 96.33L 96.73 154.07C 21.04 117.71 10 77.12 10 77.12L 10 10C 10 17.94 12.19 25.71 16.4 32.45C 25.49 46.99 46.55 71.52 93.22 94.61C 94.37 95.19 95.54 95.76 96.72 96.33L 96.73 96.33ZM 204.96 10.01L 96.73 38.59L 96.73 96.33C 95.55 95.77 94.38 95.19 93.23 94.61C 46.56 71.51 25.49 46.99 16.41 32.45C 12.2 25.72 10.01 17.94 10.01 10L 204.97 10L 204.96 10.01Z"></path></g></g></g><g id="g-root-cp_0_arrow_142e0vq10eh2j2-stroke" data-item-order="-583593" transform="translate(499.5, 207)"><g id="cp_0_arrow_142e0vq10eh2j2-stroke" fill="none" stroke-linecap="round" stroke-linejoin="round" stroke-miterlimit="4" stroke="#484848" stroke-width="2"><g><path d="M 10.000001 219.499999L 16.5 226L 23 219.500001M 16.50001 225L 16.50001 10"></path></g></g></g><g id="g-root-cp_0_arrow_1_zmkira10eh3bb-stroke" data-item-order="-583587" transform="translate(691.5, 207)"><g id="cp_0_arrow_1_zmkira10eh3bb-stroke" fill="none" stroke-linecap="round" stroke-linejoin="round" stroke-miterlimit="4" stroke="#484848" stroke-width="2"><g><path d="M 16.5 166L 16.5 10M 10.000001 160.499999L 16.5 167L 23 160.500001"></path></g></g></g><g id="g-root-cp_0_arrow_2_zmkira10eh3bc-stroke" data-item-order="-583581" transform="translate(307.5, 207)"><g id="cp_0_arrow_2_zmkira10eh3bc-stroke" fill="none" stroke-linecap="round" stroke-linejoin="round" stroke-miterlimit="4" stroke="#484848" stroke-width="2"><g><path d="M 16.5 273L 16.5 10M 10.000001 267.499999L 16.5 274L 23 267.500001"></path></g></g></g><g id="g-root-cp_0_arrow_3_v6r0mu10eh43l-stroke" data-item-order="-583575" transform="translate(115.5, 207)"><g id="cp_0_arrow_3_v6r0mu10eh43l-stroke" fill="none" stroke-linecap="round" stroke-linejoin="round" stroke-miterlimit="4" stroke="#484848" stroke-width="2"><g><path d="M 16.5 297L 16.5 10M 10.000001 291.499999L 16.5 298L 23 291.500001"></path></g></g></g><g id="g-root-tx_tooltips_909z3q10eh3bf-stroke" data-item-order="0" transform="translate(56, 39)"></g><g id="g-root-tx_drillthr_1cz9zau10eh3wl-stroke" data-item-order="0" transform="translate(248, 75)"></g><g id="g-root-tx_animacio_dhywhi10eh1jj-stroke" data-item-order="0" transform="translate(440, 75)"></g><g id="g-root-tx_visualiz_1qbzfue10eh4ht-stroke" data-item-order="0" transform="translate(620, 75)"></g><g id="g-root-tx_proporci_1qaqho610eh2bo-stroke" data-item-order="0" transform="translate(56, 99)"></g><g id="g-root-tx_permitir_zofy0m10eh2bq-stroke" data-item-order="0" transform="translate(248, 135)"></g><g id="g-root-tx_resaltar_4mbw8m10eh340-stroke" data-item-order="0" transform="translate(434, 135)"></g><g id="g-root-tx_revelarp_145ieba10eh3pm-stroke" data-item-order="0" transform="translate(632, 135)"></g></g></g></svg>